Coordinates
version=1
nRows=12
nColumns=24
inDegrees=yes

Units are S.I. units (second, meters, Newtons, ...)
Angles are in degrees.

endheader
time	pelvis_tilt	pelvis_list	pelvis_rotation	pelvis_tx	pelvis_ty	pelvis_tz	hip_flexion_r	hip_adduction_r	hip_rotation_r	knee_angle_r	ankle_angle_r	subtalar_angle_r	mtp_angle_r	hip_flexion_l	hip_adduction_l	hip_rotation_l	knee_angle_l	ankle_angle_l	subtalar_angle_l	mtp_angle_l	lumbar_extension	lumbar_bending	lumbar_rotation
      1.61000000	     12.77902123	     -7.37133426	      2.35744658	     -0.20068438	      0.96117028	     -0.02565081	      5.99291566	      6.45577794	    -14.06418276	    -28.87221460	     14.11424631	    -19.53042403	     21.19923382	    -18.95844902	     -4.18363160	    -10.83220036	     -9.42397735	     24.65538619	     -5.01507517	     11.52628075	    -22.14346362	      7.33463693	      2.51718227
      1.61500000	     13.10119626	     -7.62166770	      2.74779737	     -0.19467766	      0.96099898	     -0.02585602	      5.27155370	      6.85436727	    -14.91871804	    -26.23688341	     13.76283012	    -18.94016381	     21.50991028	    -19.62453369	     -4.61253382	    -10.85780197	     -9.49955153	     24.97063068	     -4.67752560	     11.45021403	    -22.40712195	      7.73563302	      2.34129664
      1.62000000	     13.40152940	     -7.82201595	      3.13635429	     -0.18864620	      0.96071548	     -0.02604116	      4.55905161	      7.22500414	    -15.79504730	    -23.57898697	     13.38907433	    -18.20300993	     21.88508981	    -20.25682574	     -4.99683994	    -10.87236209	     -9.59295959	     25.28565455	     -4.34218360	     11.38541434	    -22.64127139	      8.08745134	      2.13660781
      1.62500000	     13.70102214	     -7.98623676	      3.48658374	     -0.18258033	      0.96032982	     -0.02612372	      3.84037483	      7.58815005	    -16.64929790	    -20.91925450	     12.96757080	    -17.30609575	     22.42487624	    -20.89484518	     -5.34093771	    -10.94198646	     -9.68950118	     25.65047789	     -4.01665501	     11.30547813	    -22.87200393	      8.38348381	      1.94179100
      1.63000000	     13.94213436	     -8.08591417	      3.85116083	     -0.17649499	      0.95980566	     -0.02619480	      3.18408013	      7.90062966	    -17.57946343	    -18.27522324	     12.56263307	    -16.26321236	     22.95028923	    -21.45502212	     -5.63180411	    -10.93777138	     -9.80566050	     25.92303578	     -3.70197580	     11.24675813	    -23.03132063	      8.61659937	      1.72921682
      1.63500000	     14.18533825	     -8.15219389	      4.16829973	     -0.17038611	      0.95919432	     -0.02614822	      2.52014844	      8.21217111	    -18.45575145	    -15.64054214	     12.09195177	    -15.06731541	     23.64961753	    -22.02701796	     -5.88011909	    -10.97813089	     -9.92468230	     26.27602277	     -3.40155342	     11.18671481	    -23.19570571	      8.79463319	      1.53982468
      1.64000000	     14.36169763	     -8.16000169	      4.47919523	     -0.16426291	      0.95842949	     -0.02602784	      1.94126926	      8.48163240	    -19.36183299	    -13.06561189	     11.62865010	    -13.77705733	     24.35497446	    -22.51230725	     -6.07851995	    -10.99021259	    -10.07236804	     26.54438290	     -3.10124479	     11.14096517	    -23.28500766	      8.90070310	      1.33633891
      1.64500000	     14.49933026	     -8.12101839	      4.73422543	     -0.15815852	      0.95752558	     -0.02581515	      1.43187762	      8.71503159	    -20.19762595	    -10.59324971	     11.15466331	    -12.35492427	     25.25409366	    -22.95747808	     -6.21075962	    -11.00665850	    -10.23566658	     26.89473302	     -2.84366963	     11.09576419	    -23.34188713	      8.94184274	      1.13677193
      1.65000000	     14.49416698	     -8.00086175	      4.97084252	     -0.15216278	      0.95640178	     -0.02553067	      1.13162370	      8.85728333	    -21.02484713	     -8.26545844	     10.50556075	    -11.07381360	     27.66676466	    -23.20856623	     -6.25942122	    -10.91482077	    -10.46552731	     27.17943181	     -2.63939905	     10.89846461	    -23.25924792	      8.88193441	      0.91580690
      1.65500000	     14.51021930	     -7.86808504	      5.12575792	     -0.14612913	      0.95524386	     -0.02508296	      0.83652484	      8.99996843	    -21.72910117	     -6.08534640	     10.09645744	     -9.56488862	     27.90607739	    -23.51009701	     -6.27327611	    -10.94348524	    -10.68100362	     27.45542552	     -2.38436029	     10.94668092	    -23.20739889	      8.77622578	      0.77636637
      1.66000000	     14.45464486	     -7.68972622	      5.25019394	     -0.14018277	      0.95394509	     -0.02459750	      0.68462311	      9.07211725	    -22.42187482	     -4.10863552	      9.74645447	     -7.95473560	     28.26089595	    -23.71776101	     -6.22688026	    -10.91228620	    -10.92845808	     27.72907212	     -2.20044427	     10.98716630	    -23.09512580	      8.61231977	      0.63752649
      1.66500000	     14.35023419	     -7.49070697	      5.34577636	     -0.13427738	      0.95255771	     -0.02404018	      0.62789294	      9.11221440	    -23.03927923	     -2.28955920	      9.41115509	     -6.39221352	     28.65399299	    -23.86194265	     -6.15218972	    -10.86652423	    -11.20375714	     28.00602335	     -2.03420049	     11.03224682	    -22.93922589	      8.41317250	      0.51148310
